<?xml version="1.0" encoding="UTF-8" standalone="no"?>
<svg
   xmlns:dc="http://purl.org/dc/elements/1.1/"
   xmlns:cc="http://creativecommons.org/ns#"
   xmlns:rdf="http://www.w3.org/1999/02/22-rdf-syntax-ns#"
   xmlns:svg="http://www.w3.org/2000/svg"
   xmlns="http://www.w3.org/2000/svg"
   xmlns:sodipodi="http://sodipodi.sourceforge.net/DTD/sodipodi-0.dtd"
   xmlns:inkscape="http://www.inkscape.org/namespaces/inkscape"
   version="1.1"
   x="0px"
   y="0px"
   viewBox="0 0 100 100"
   enable-background="new 0 0 100 100"
   xml:space="preserve"
   id="svg4457"
   inkscape:version="0.91 r13725"
   sodipodi:docname="glossaryterm-d.svg"
   width="100"
   height="100"
   inkscape:export-filename="/var/work/php/wp-plugins/git/ithoughts-tooltip-glossary/js/icon/glossaryterm.png"
   inkscape:export-xdpi="27"
   inkscape:export-ydpi="27"><metadata
     id="metadata4469"><rdf:RDF><cc:Work
         rdf:about=""><dc:format>image/svg+xml</dc:format><dc:type
           rdf:resource="http://purl.org/dc/dcmitype/StillImage" /><dc:title></dc:title></cc:Work></rdf:RDF></metadata><defs
     id="defs4467"><mask
       maskUnits="userSpaceOnUse"
       id="mask5103"><path
         d="m 99.713774,21.838974 -99.42754771,0 0,54.993816 36.42144571,0 13.511562,13.51044 13.51156,-13.51156 35.98298,0 0,-54.992696 z M 50.514158,44.379923 c 3.297991,0 5.971372,2.67338 5.971372,5.97025 0,3.297992 -2.673381,5.971373 -5.971372,5.971373 -3.297992,0 -5.971372,-2.673381 -5.971372,-5.971373 0.0011,-3.29687 2.674502,-5.97025 5.971372,-5.97025 z m -25.115648,5.97025 c 0,-3.29687 2.673381,-5.97025 5.970251,-5.97025 3.29687,0 5.970251,2.67338 5.970251,5.97025 0,3.297992 -2.673381,5.971373 -5.970251,5.971373 -3.29687,0 -5.970251,-2.673381 -5.970251,-5.971373 z m 43.231614,5.971373 c -3.29463,0 -5.96801,-2.673381 -5.96801,-5.971373 0,-3.29687 2.673379,-5.97025 5.968009,-5.97025 3.29799,0 5.971371,2.67338 5.971371,5.97025 0,3.297992 -2.67226,5.971373 -5.971371,5.971373 z"
         id="path5105"
         inkscape:connector-curvature="0"
         style="fill:#ffffff;fill-opacity:1" /></mask></defs><sodipodi:namedview
     pagecolor="#ffffff"
     bordercolor="#666666"
     borderopacity="1"
     objecttolerance="10"
     gridtolerance="10"
     guidetolerance="10"
     inkscape:pageopacity="0"
     inkscape:pageshadow="2"
     inkscape:window-width="1280"
     inkscape:window-height="736"
     id="namedview4465"
     showgrid="false"
     inkscape:zoom="3.776"
     inkscape:cx="64.805143"
     inkscape:cy="34.861084"
     inkscape:window-x="0"
     inkscape:window-y="27"
     inkscape:window-maximized="1"
     inkscape:current-layer="svg4457" /><path
     d="m 99.713776,21.838975 -99.42755191,0 0,54.993814 36.42144591,0 13.511561,13.51044 13.511561,-13.511561 35.982984,0 0,-54.992693 z M 50.514155,44.379924 c 3.297991,0 5.971372,2.67338 5.971372,5.97025 0,3.297992 -2.673381,5.971373 -5.971372,5.971373 -3.297992,0 -5.971372,-2.673381 -5.971372,-5.971373 0.0011,-3.29687 2.674502,-5.97025 5.971372,-5.97025 z m -25.115648,5.97025 c 0,-3.29687 2.673381,-5.97025 5.970251,-5.97025 3.29687,0 5.970251,2.67338 5.970251,5.97025 0,3.297992 -2.673381,5.971373 -5.970251,5.971373 -3.29687,0 -5.970251,-2.673381 -5.970251,-5.971373 z m 43.231613,5.971373 c -3.294627,0 -5.968008,-2.673381 -5.968008,-5.971373 0,-3.29687 2.673381,-5.97025 5.968008,-5.97025 3.297992,0 5.971373,2.67338 5.971373,5.97025 0,3.297992 -2.67226,5.971373 -5.971373,5.971373 z"
     id="tooltip"
     inkscape:connector-curvature="0"
     style="fill:#808080;fill-opacity:1" /><path
     style="fill:none;fill-rule:evenodd;stroke:#808080;stroke-width:6;stroke-linecap:butt;stroke-linejoin:round;stroke-miterlimit:4;stroke-dasharray:none;stroke-opacity:1"
     d="M -0.58262525,-0.58262638 100.58263,100.58263"
     id="path5055"
     inkscape:connector-curvature="0"
     sodipodi:nodetypes="cc" /><path
     style="fill:none;fill-rule:evenodd;stroke:#ffffff;stroke-width:6;stroke-linecap:butt;stroke-linejoin:round;stroke-miterlimit:4;stroke-dasharray:none;stroke-opacity:1"
     d="M -0.5826255,-0.5826271 100.58263,100.58263"
     id=""
     inkscape:connector-curvature="0"
     sodipodi:nodetypes="cc"
     mask="url(#mask5103)" /></svg>