<svg xmlns="http://www.w3.org/2000/svg" width="248.931" height="491.499" viewBox="0 0 233.37243 460.77995"><path d="M19.32 312.087h194.658" fill="none" stroke="#000" stroke-width="28.099" stroke-linecap="round" stroke-linejoin="round" stroke-opacity=".482"/><text style="line-height:125%;-inkscape-font-specification:'sans-serif Bold'" x="49.688" y="46.648" font-weight="700" font-size="40" font-family="sans-serif" letter-spacing="0" word-spacing="0" transform="translate(-44.929 -16.94)"><tspan x="49.688" y="46.648">A</tspan></text><text style="line-height:125%" x="98.645" y="46.648" font-weight="400" font-size="40" font-family="sans-serif" letter-spacing="0" word-spacing="0" transform="translate(-44.929 -16.94)"><tspan x="98.645" y="46.648">B</tspan></text><text style="line-height:125%" x="146.284" y="46.648" font-weight="400" font-size="40" font-family="sans-serif" letter-spacing="0" word-spacing="0" transform="translate(-44.929 -16.94)"><tspan x="146.284" y="46.648">D</tspan></text><text style="line-height:125%" x="197.039" y="46.628" font-weight="400" font-size="40" font-family="sans-serif" letter-spacing="0" word-spacing="0" transform="translate(-44.929 -16.94)"><tspan x="197.039" y="46.628">G</tspan></text><text style="line-height:125%" x="246.074" y="46.648" font-weight="400" font-size="40" font-family="sans-serif" letter-spacing="0" word-spacing="0" transform="translate(-44.929 -16.94)"><tspan x="246.074" y="46.648">K</tspan></text><path d="M5.071 55.421h223.23" fill="none" stroke="#000" stroke-width="10" stroke-linecap="round" stroke-linejoin="round"/><text style="line-height:125%" x="49.688" y="388.489" font-weight="400" font-size="40" font-family="sans-serif" letter-spacing="0" word-spacing="0" transform="translate(-44.929 -16.94)"><tspan x="49.688" y="388.489">Art</tspan></text><text style="line-height:125%" x="49.688" y="119.537" font-weight="400" font-size="40" font-family="sans-serif" letter-spacing="0" word-spacing="0" transform="translate(-44.929 -16.94)"><tspan x="49.688" y="119.537">Alias</tspan></text><text style="line-height:125%" x="49.688" y="254.179" font-weight="400" font-size="40" font-family="sans-serif" letter-spacing="0" word-spacing="0" transform="translate(-44.929 -16.94)"><tspan x="49.688" y="254.179">Animal</tspan></text><path d="M19.32 132.564h194.658M19.32 177.445h194.658M19.32 267.206h194.658M19.32 401.848h194.658M19.32 446.729h194.658" fill="none" stroke="#000" stroke-width="28.099" stroke-linecap="round" stroke-linejoin="round" stroke-opacity=".482"/></svg>