<svg xmlns="http://www.w3.org/2000/svg" width="608.836" height="495.225" viewBox="0 0 570.78381 464.27368"><path d="M19.32 315.58h194.658" fill="none" stroke="#000" stroke-width="28.099" stroke-linecap="round" stroke-linejoin="round" stroke-opacity=".482"/><text style="line-height:125%;-inkscape-font-specification:'sans-serif Bold'" x="49.688" y="46.648" font-weight="700" font-size="40" font-family="sans-serif" letter-spacing="0" word-spacing="0" transform="translate(-44.929 -13.447)"><tspan x="49.688" y="46.648">A</tspan></text><text style="line-height:125%" x="98.645" y="46.648" font-weight="400" font-size="40" font-family="sans-serif" letter-spacing="0" word-spacing="0" transform="translate(-44.929 -13.447)"><tspan x="98.645" y="46.648">B</tspan></text><text style="line-height:125%" x="146.284" y="46.648" font-weight="400" font-size="40" font-family="sans-serif" letter-spacing="0" word-spacing="0" transform="translate(-44.929 -13.447)"><tspan x="146.284" y="46.648">D</tspan></text><text style="line-height:125%" x="197.039" y="46.628" font-weight="400" font-size="40" font-family="sans-serif" letter-spacing="0" word-spacing="0" transform="translate(-44.929 -13.447)"><tspan x="197.039" y="46.628">G</tspan></text><text style="line-height:125%" x="246.074" y="46.648" font-weight="400" font-size="40" font-family="sans-serif" letter-spacing="0" word-spacing="0" transform="translate(-44.929 -13.447)"><tspan x="246.074" y="46.648">K</tspan></text><path d="M5.071 58.915h223.23" fill="none" stroke="#000" stroke-width="10" stroke-linecap="round" stroke-linejoin="round"/><text style="line-height:125%" x="49.688" y="388.489" font-weight="400" font-size="40" font-family="sans-serif" letter-spacing="0" word-spacing="0" transform="translate(-44.929 -13.447)"><tspan x="49.688" y="388.489">Art</tspan></text><text style="line-height:125%" x="49.688" y="119.537" font-weight="400" font-size="40" font-family="sans-serif" letter-spacing="0" word-spacing="0" transform="translate(-44.929 -13.447)"><tspan x="49.688" y="119.537">Alias</tspan></text><text style="line-height:125%" x="49.688" y="254.179" font-weight="400" font-size="40" font-family="sans-serif" letter-spacing="0" word-spacing="0" transform="translate(-44.929 -13.447)"><tspan x="49.688" y="254.179">Animal</tspan></text><path d="M19.32 136.058h194.658M19.32 180.939h194.658M19.32 270.7h194.658M19.32 405.342h194.658M19.32 450.223h194.658" fill="none" stroke="#000" stroke-width="28.099" stroke-linecap="round" stroke-linejoin="round" stroke-opacity=".482"/><text y="42.607" x="385.058" style="line-height:125%" font-weight="400" font-size="40" font-family="sans-serif" letter-spacing="0" word-spacing="0" transform="translate(-44.929 -13.447)"><tspan y="42.607" x="385.058">A</tspan></text><path d="M340.442 54.874h223.23" fill="none" stroke="#000" stroke-width="10" stroke-linecap="round" stroke-linejoin="round"/><text y="124.587" x="382.028" style="line-height:125%" font-weight="400" font-size="40" font-family="sans-serif" letter-spacing="0" word-spacing="0" transform="translate(-44.929 -13.447)"><tspan y="124.587" x="382.028">Alias</tspan></text><path d="M351.661 141.109H546.32M351.661 185.99H546.32" fill="none" stroke="#000" stroke-width="28.099" stroke-linecap="round" stroke-linejoin="round" stroke-opacity=".482"/><text style="line-height:125%" x="378.414" y="305.247" font-weight="400" font-size="40" font-family="sans-serif" letter-spacing="0" word-spacing="0" transform="translate(-44.929 -13.447)"><tspan x="378.414" y="305.247">B</tspan></text><path d="M342.483 317.514h223.23" fill="none" stroke="#000" stroke-width="10" stroke-linecap="round" stroke-linejoin="round"/><text style="line-height:125%" x="378.414" y="387.227" font-weight="400" font-size="40" font-family="sans-serif" letter-spacing="0" word-spacing="0" transform="translate(-44.929 -13.447)"><tspan x="378.414" y="387.227">Bottle</tspan></text><path d="M351.661 403.748H546.32M351.661 448.63H546.32" fill="none" stroke="#000" stroke-width="28.099" stroke-linecap="round" stroke-linejoin="round" stroke-opacity=".482"/></svg>