<svg xmlns="http://www.w3.org/2000/svg" viewBox="0 0 100 100" width="100" height="100"><defs><mask maskUnits="userSpaceOnUse" id="a"><path d="M99.714 21.839H.286v54.994h36.422l13.511 13.51 13.512-13.511h35.983V21.839zm-49.2 22.54a5.971 5.971 0 1 1 0 11.943 5.971 5.971 0 0 1 0-11.942zM25.4 50.35a5.97 5.97 0 1 1 11.941.001 5.97 5.97 0 0 1-11.941 0zm43.231 5.972a5.97 5.97 0 1 1 .005-11.942 5.97 5.97 0 0 1-.005 11.942z" fill="#fff"/></mask></defs><path d="M99.714 21.839H.286v54.994h36.422l13.511 13.51 13.512-13.511h35.983V21.839zm-49.2 22.54a5.971 5.971 0 1 1 0 11.943 5.971 5.971 0 0 1 0-11.942zM25.4 50.35a5.97 5.97 0 1 1 11.941.001 5.97 5.97 0 0 1-11.941 0zm43.231 5.972a5.97 5.97 0 1 1 .005-11.942 5.97 5.97 0 0 1-.005 11.942z" fill="gray"/><path d="M-.583-.583l101.166 101.166" fill="none" stroke="gray" stroke-width="6" stroke-linejoin="round"/><path d="M-.583-.583l101.166 101.166" mask="url(#a)" fill="none" stroke="#fff" stroke-width="6" stroke-linejoin="round"/></svg>