<svg xmlns="http://www.w3.org/2000/svg" viewBox="0 0 16 16" height="16" width="16"><defs><clipPath id="a"><path d="M0 600h600V0H0v600z"/></clipPath></defs><g clip-path="url(#a)" transform="matrix(1.25 0 0 -1.25 -302.368 309.942)"><path d="M251.826 244.134l-.527-.527-1.48 1.48.526.528a.828.828 0 0 0 1.172.001l.31-.31a.828.828 0 0 0-.001-1.172m-1.448-1.448l-1.48 1.481.643.644 1.48-1.481-.643-.644zm-3.446-3.446l-1.48 1.48 3.217 3.219 1.48-1.48-3.217-3.22zm-1.473-.565l-.572.572.062.23.271 1.011.74-.74.74-.74-1.01-.27-.231-.063zm-.846-.274l.178.486.308-.308-.486-.178zm8.587 9.009h-9.718a.421.421 0 0 1-.421-.421v-9.718c0-.233.189-.422.421-.422h3.24l.737-.714.882-.858.883.858.736.714h3.24c.233 0 .422.189.422.422v9.718a.421.421 0 0 1-.422.421" fill="#fff"/></g></svg>