<svg xmlns="http://www.w3.org/2000/svg" width="25.946" height="25.914" viewBox="0 0 25.946415 25.913609"><path d="M.256 25.646c.098-.13 8.26-10.789 8.281-10.813.011-.012.59.547 1.288 1.244l1.267 1.266-.114.108c-.063.06-2.422 1.875-5.243 4.034L.403 25.566c-.112.086-.178.122-.147.08zm10.557-10.565l-5.636-5.64.33-.305C6.859 7.888 8.9 7.115 10.849 7.113c.458 0 1.419.12 1.818.227.153.042.294.076.312.076.018 0 1.092-1.49 2.387-3.31 1.294-1.823 2.428-3.388 2.52-3.48.282-.282.556-.39.943-.376.183.007.163-.013 3.865 3.739 3.255 3.298 3.087 3.092 2.937 3.598-.05.172-.147.32-.313.483-.131.129-1.728 1.247-3.547 2.485l-3.308 2.25.07.238c.263.885.333 2.449.156 3.437-.207 1.155-.771 2.461-1.46 3.383-.341.457-.692.858-.751.858-.016 0-2.565-2.538-5.665-5.64zm1.184-3.151c.635-.608 1.394-1.21 1.823-1.446.19-.104.35-.194.358-.199.007-.004-.21-.23-.482-.503l-.496-.494-.459.027c-.763.045-1.725.418-2.613 1.01-.21.141-.39.263-.4.271-.03.025 1.682 1.798 1.736 1.798.026 0 .266-.21.533-.464zm6.401-4.97c1.205-1.103 2.19-2.02 2.19-2.036.001-.074-1.736-1.681-1.773-1.64-.022.025-.866 1.101-1.875 2.392l-1.833 2.347.494.483c.271.266.52.479.55.472.032-.007 1.043-.915 2.247-2.018z"/></svg>