<?xml version="1.0" encoding="UTF-8" standalone="no"?>
<svg
   xmlns:dc="http://purl.org/dc/elements/1.1/"
   xmlns:cc="http://creativecommons.org/ns#"
   xmlns:rdf="http://www.w3.org/1999/02/22-rdf-syntax-ns#"
   xmlns:svg="http://www.w3.org/2000/svg"
   xmlns="http://www.w3.org/2000/svg"
   viewBox="0 0 16 16"
   height="16"
   width="16"
   xml:space="preserve"
   version="1.1"
   id="svg2"><metadata
     id="metadata8"><rdf:RDF><cc:Work
         rdf:about=""><dc:format>image/svg+xml</dc:format><dc:type
           rdf:resource="http://purl.org/dc/dcmitype/StillImage" /><dc:title></dc:title></cc:Work></rdf:RDF></metadata><defs
     id="defs6"><clipPath
       id="clipPath16"
       clipPathUnits="userSpaceOnUse"><path
         id="path18"
         d="M 0,600 600,600 600,0 0,0 0,600 Z" /></clipPath></defs><g
     transform="matrix(1.25,0,0,-1.25,-302.36788,309.94175)"
     id="g10"><g
       id="g12"><g
         clip-path="url(#clipPath16)"
         id="g14"><g
           transform="translate(345.9023,340.2534)"
           id="g20"><path
             id="path22"
             style="fill:#ffffff;fill-opacity:1;fill-rule:nonzero;stroke:none"
             d="m -94.076386,-96.119344 -0.527033,-0.527032 -1.48073,1.48073 0.527032,0.527033 c 0.323855,0.323939 0.848443,0.324781 1.17154,0.0017 l 0.310961,-0.310961 c 0.323011,-0.323096 0.322253,-0.847516 -0.0018,-1.171455 m -1.447865,-1.447696 -1.480562,1.480731 0.643664,0.643579 1.480815,-1.480646 -0.643917,-0.643664 z m -3.446103,-3.446445 -1.480726,1.480817 3.21806,3.217899 1.480647,-1.480562 -3.217981,-3.218154 z m -1.473226,-0.56454 -0.57119,0.57119 0.0619,0.23074 0.27085,1.010754 0.739986,-0.739994 0.7399,-0.73999 -1.010746,-0.27093 -0.23065,-0.0618 z m -0.84541,-0.2743 0.17781,0.48566 0.30784,-0.30767 -0.48565,-0.17799 z m 8.587069,9.008943 -9.717989,0 c -0.23276,0 -0.42136,-0.188683 -0.42136,-0.421356 l 0,-9.717917 c 0,-0.23276 0.1886,-0.42136 0.42136,-0.42136 l 3.239886,0 0.736279,-0.71487 0.882741,-0.85738 0.882911,0.85738 0.736193,0.71487 3.239979,0 c 0.232673,0 0.421356,0.1886 0.421356,0.42136 l 0,9.717917 c 0,0.232673 -0.188683,0.421356 -0.421356,0.421356" /></g></g></g></g></svg>